<svg xmlns="http://www.w3.org/2000/svg" xmlns:xlink="http://www.w3.org/1999/xlink" width="500" zoomAndPan="magnify" viewBox="0 0 375 374.999991" height="500" preserveAspectRatio="xMidYMid meet" version="1.0"><defs><filter x="0%" y="0%" width="100%" height="100%" id="fc0f17c39b"><feColorMatrix values="0 0 0 0 1 0 0 0 0 1 0 0 0 0 1 0 0 0 1 0" color-interpolation-filters="sRGB"/></filter><g/><mask id="4d71e77e8b"><g filter="url(#fc0f17c39b)"><rect x="-37.5" width="450" fill="#000000" y="-37.499999" height="449.999989" fill-opacity="0.5"/></g></mask><clipPath id="7af36ed46b"><rect x="0" width="117" y="0" height="142"/></clipPath><mask id="bfba8dae06"><g filter="url(#fc0f17c39b)"><rect x="-37.5" width="450" fill="#000000" y="-37.499999" height="449.999989" fill-opacity="0.75"/></g></mask><clipPath id="eb8d338604"><rect x="0" width="47" y="0" height="19"/></clipPath></defs><rect x="-37.5" width="450" fill="#ffffff" y="-37.499999" height="449.999989" fill-opacity="1"/><rect x="-37.5" width="450" fill="#e1d4c1" y="-37.499999" height="449.999989" fill-opacity="1"/><g fill="#6e493a" fill-opacity="1"><g transform="translate(123.502113, 212.249986)"><g><path d="M 41.90625 -4.015625 C 34.976562 1.566406 27.304688 4.359375 18.890625 4.359375 C 9.273438 4.359375 3.351562 1.675781 1.125 -3.6875 C 0.59375 -4.957031 0.328125 -6.425781 0.328125 -8.09375 C 0.328125 -9.769531 1.1875 -11.578125 2.90625 -13.515625 C 5.582031 -16.566406 9.304688 -18.09375 14.078125 -18.09375 C 17.285156 -18.09375 20.507812 -17.515625 23.75 -16.359375 C 26.988281 -15.210938 32.738281 -12.441406 41 -8.046875 C 44.726562 -11.617188 48.453125 -16.382812 52.171875 -22.34375 C 55.898438 -28.300781 59.125 -34.054688 61.84375 -39.609375 C 64.5625 -45.160156 67.875 -51.210938 71.78125 -57.765625 C 75.695312 -64.316406 79.59375 -69.753906 83.46875 -74.078125 C 75.125 -79.066406 66.257812 -81.5625 56.875 -81.5625 C 53 -81.5625 49.050781 -81.15625 45.03125 -80.34375 C 33.476562 -77.882812 24.6875 -72.851562 18.65625 -65.25 C 14.9375 -60.632812 13.078125 -56.238281 13.078125 -52.0625 C 13.078125 -46.40625 15.796875 -42.71875 21.234375 -41 C 23.171875 -40.476562 24.84375 -40.21875 26.25 -40.21875 C 27.664062 -40.21875 29.25 -40.441406 31 -40.890625 C 32.75 -41.335938 34.484375 -42.378906 36.203125 -44.015625 C 39.484375 -47.296875 41.234375 -50.351562 41.453125 -53.1875 C 41.523438 -53.851562 41.953125 -54.09375 42.734375 -53.90625 C 43.515625 -53.71875 43.832031 -53.144531 43.6875 -52.1875 C 42.945312 -46.738281 40.078125 -42.601562 35.078125 -39.78125 C 32.023438 -38.132812 28.972656 -37.3125 25.921875 -37.3125 L 20.109375 -38.328125 C 14.453125 -40.265625 10.726562 -43.875 8.9375 -49.15625 C 8.195312 -51.175781 7.828125 -53.191406 7.828125 -55.203125 C 7.828125 -59.296875 9.351562 -63.351562 12.40625 -67.375 C 18.957031 -76.164062 30.578125 -81.789062 47.265625 -84.25 C 50.546875 -84.695312 53.785156 -84.921875 56.984375 -84.921875 C 67.335938 -84.921875 77.207031 -82.460938 86.59375 -77.546875 C 89.5 -80.898438 92.179688 -83.453125 94.640625 -85.203125 C 97.097656 -86.953125 99.070312 -87.828125 100.5625 -87.828125 C 101.382812 -87.828125 101.867188 -87.65625 102.015625 -87.3125 C 102.160156 -86.976562 102.140625 -86.71875 101.953125 -86.53125 C 101.765625 -86.351562 101.523438 -86.265625 101.234375 -86.265625 C 99.960938 -86.265625 98.320312 -84.921875 96.3125 -82.234375 C 94.300781 -79.554688 92.664062 -77.0625 91.40625 -74.75 C 99.375 -69.457031 105.441406 -62.679688 109.609375 -54.421875 C 112.960938 -47.785156 114.640625 -40.554688 114.640625 -32.734375 C 114.640625 -23.054688 112.332031 -15.347656 107.71875 -9.609375 C 103.914062 -4.910156 99.296875 -1.597656 93.859375 0.328125 C 87.378906 2.640625 80.972656 3.796875 74.640625 3.796875 C 61.828125 3.796875 50.914062 1.191406 41.90625 -4.015625 Z M 44.578125 -6.03125 C 52.109375 -1.5625 60.9375 0.671875 71.0625 0.671875 C 82.832031 0.671875 92.21875 -2.679688 99.21875 -9.390625 C 104.800781 -14.828125 107.59375 -22.347656 107.59375 -31.953125 C 107.59375 -38.804688 106.253906 -45.25 103.578125 -51.28125 C 100.222656 -58.957031 95.269531 -65.363281 88.71875 -70.5 C 86.5625 -67.144531 82.410156 -60.382812 76.265625 -50.21875 C 70.117188 -40.050781 64.921875 -31.800781 60.671875 -25.46875 C 56.421875 -19.144531 53.066406 -14.660156 50.609375 -12.015625 C 48.148438 -9.367188 46.140625 -7.375 44.578125 -6.03125 Z M 38.09375 -5.8125 C 29.382812 -9.976562 23.875 -12.472656 21.5625 -13.296875 C 19.25 -14.117188 16.992188 -14.53125 14.796875 -14.53125 C 12.609375 -14.53125 10.859375 -13.707031 9.546875 -12.0625 C 8.242188 -10.425781 7.59375 -8.957031 7.59375 -7.65625 C 7.59375 -6.351562 7.890625 -5.101562 8.484375 -3.90625 C 10.054688 -0.707031 13.257812 0.890625 18.09375 0.890625 C 25.25 0.890625 31.914062 -1.34375 38.09375 -5.8125 Z M 38.09375 -5.8125 "/></g></g></g><g mask="url(#4d71e77e8b)"><g transform="matrix(1, 0, 0, 1, 133, 116)"><g clip-path="url(#7af36ed46b)"><g fill="#6e493a" fill-opacity="1"><g transform="translate(0.80987, 96.250001)"><g><path d="M 41.90625 -4.015625 C 34.976562 1.566406 27.304688 4.359375 18.890625 4.359375 C 9.273438 4.359375 3.351562 1.675781 1.125 -3.6875 C 0.59375 -4.957031 0.328125 -6.425781 0.328125 -8.09375 C 0.328125 -9.769531 1.1875 -11.578125 2.90625 -13.515625 C 5.582031 -16.566406 9.304688 -18.09375 14.078125 -18.09375 C 17.285156 -18.09375 20.507812 -17.515625 23.75 -16.359375 C 26.988281 -15.210938 32.738281 -12.441406 41 -8.046875 C 44.726562 -11.617188 48.453125 -16.382812 52.171875 -22.34375 C 55.898438 -28.300781 59.125 -34.054688 61.84375 -39.609375 C 64.5625 -45.160156 67.875 -51.210938 71.78125 -57.765625 C 75.695312 -64.316406 79.59375 -69.753906 83.46875 -74.078125 C 75.125 -79.066406 66.257812 -81.5625 56.875 -81.5625 C 53 -81.5625 49.050781 -81.15625 45.03125 -80.34375 C 33.476562 -77.882812 24.6875 -72.851562 18.65625 -65.25 C 14.9375 -60.632812 13.078125 -56.238281 13.078125 -52.0625 C 13.078125 -46.40625 15.796875 -42.71875 21.234375 -41 C 23.171875 -40.476562 24.84375 -40.21875 26.25 -40.21875 C 27.664062 -40.21875 29.25 -40.441406 31 -40.890625 C 32.75 -41.335938 34.484375 -42.378906 36.203125 -44.015625 C 39.484375 -47.296875 41.234375 -50.351562 41.453125 -53.1875 C 41.523438 -53.851562 41.953125 -54.09375 42.734375 -53.90625 C 43.515625 -53.71875 43.832031 -53.144531 43.6875 -52.1875 C 42.945312 -46.738281 40.078125 -42.601562 35.078125 -39.78125 C 32.023438 -38.132812 28.972656 -37.3125 25.921875 -37.3125 L 20.109375 -38.328125 C 14.453125 -40.265625 10.726562 -43.875 8.9375 -49.15625 C 8.195312 -51.175781 7.828125 -53.191406 7.828125 -55.203125 C 7.828125 -59.296875 9.351562 -63.351562 12.40625 -67.375 C 18.957031 -76.164062 30.578125 -81.789062 47.265625 -84.25 C 50.546875 -84.695312 53.785156 -84.921875 56.984375 -84.921875 C 67.335938 -84.921875 77.207031 -82.460938 86.59375 -77.546875 C 89.5 -80.898438 92.179688 -83.453125 94.640625 -85.203125 C 97.097656 -86.953125 99.070312 -87.828125 100.5625 -87.828125 C 101.382812 -87.828125 101.867188 -87.65625 102.015625 -87.3125 C 102.160156 -86.976562 102.140625 -86.71875 101.953125 -86.53125 C 101.765625 -86.351562 101.523438 -86.265625 101.234375 -86.265625 C 99.960938 -86.265625 98.320312 -84.921875 96.3125 -82.234375 C 94.300781 -79.554688 92.664062 -77.0625 91.40625 -74.75 C 99.375 -69.457031 105.441406 -62.679688 109.609375 -54.421875 C 112.960938 -47.785156 114.640625 -40.554688 114.640625 -32.734375 C 114.640625 -23.054688 112.332031 -15.347656 107.71875 -9.609375 C 103.914062 -4.910156 99.296875 -1.597656 93.859375 0.328125 C 87.378906 2.640625 80.972656 3.796875 74.640625 3.796875 C 61.828125 3.796875 50.914062 1.191406 41.90625 -4.015625 Z M 44.578125 -6.03125 C 52.109375 -1.5625 60.9375 0.671875 71.0625 0.671875 C 82.832031 0.671875 92.21875 -2.679688 99.21875 -9.390625 C 104.800781 -14.828125 107.59375 -22.347656 107.59375 -31.953125 C 107.59375 -38.804688 106.253906 -45.25 103.578125 -51.28125 C 100.222656 -58.957031 95.269531 -65.363281 88.71875 -70.5 C 86.5625 -67.144531 82.410156 -60.382812 76.265625 -50.21875 C 70.117188 -40.050781 64.921875 -31.800781 60.671875 -25.46875 C 56.421875 -19.144531 53.066406 -14.660156 50.609375 -12.015625 C 48.148438 -9.367188 46.140625 -7.375 44.578125 -6.03125 Z M 38.09375 -5.8125 C 29.382812 -9.976562 23.875 -12.472656 21.5625 -13.296875 C 19.25 -14.117188 16.992188 -14.53125 14.796875 -14.53125 C 12.609375 -14.53125 10.859375 -13.707031 9.546875 -12.0625 C 8.242188 -10.425781 7.59375 -8.957031 7.59375 -7.65625 C 7.59375 -6.351562 7.890625 -5.101562 8.484375 -3.90625 C 10.054688 -0.707031 13.257812 0.890625 18.09375 0.890625 C 25.25 0.890625 31.914062 -1.34375 38.09375 -5.8125 Z M 38.09375 -5.8125 "/></g></g></g></g></g></g><g mask="url(#bfba8dae06)"><g transform="matrix(1, 0, 0, 1, 167, 215)"><g clip-path="url(#eb8d338604)"><g fill="#6e493a" fill-opacity="1"><g transform="translate(1.221888, 14.374931)"><g><path d="M 0.765625 -0.46875 C 1.097656 -0.46875 1.332031 -0.535156 1.46875 -0.671875 C 1.613281 -0.816406 1.691406 -0.988281 1.703125 -1.1875 C 1.722656 -1.394531 1.734375 -1.75 1.734375 -2.25 L 1.734375 -8.140625 C 1.734375 -8.640625 1.75 -9.003906 1.78125 -9.234375 L 0.765625 -9.1875 L 0.765625 -9.796875 C 2.128906 -9.816406 3.1875 -9.828125 3.9375 -9.828125 C 5.039062 -9.828125 5.882812 -9.632812 6.46875 -9.25 C 7.0625 -8.863281 7.359375 -8.273438 7.359375 -7.484375 C 7.359375 -6.984375 7.160156 -6.519531 6.765625 -6.09375 C 6.367188 -5.664062 5.796875 -5.390625 5.046875 -5.265625 L 5.046875 -5.234375 C 6.046875 -5.234375 6.8125 -5.003906 7.34375 -4.546875 C 7.882812 -4.085938 8.15625 -3.488281 8.15625 -2.75 C 8.15625 -2.1875 8.015625 -1.695312 7.734375 -1.28125 C 7.453125 -0.863281 7.0625 -0.546875 6.5625 -0.328125 C 6.0625 -0.109375 5.492188 0 4.859375 0 L 0.765625 0 Z M 3.96875 -5.390625 C 4.707031 -5.398438 5.242188 -5.601562 5.578125 -6 C 5.921875 -6.394531 6.09375 -6.882812 6.09375 -7.46875 C 6.09375 -8.164062 5.890625 -8.648438 5.484375 -8.921875 C 5.078125 -9.191406 4.582031 -9.328125 4 -9.328125 C 3.707031 -9.328125 3.484375 -9.285156 3.328125 -9.203125 C 3.179688 -9.117188 3.082031 -8.984375 3.03125 -8.796875 C 2.976562 -8.609375 2.953125 -8.332031 2.953125 -7.96875 L 2.953125 -5.359375 Z M 4.390625 -0.53125 C 5.128906 -0.53125 5.710938 -0.710938 6.140625 -1.078125 C 6.578125 -1.453125 6.796875 -1.976562 6.796875 -2.65625 C 6.796875 -3.445312 6.570312 -4.007812 6.125 -4.34375 C 5.6875 -4.6875 5.109375 -4.859375 4.390625 -4.859375 C 3.878906 -4.859375 3.398438 -4.84375 2.953125 -4.8125 L 2.953125 -1.65625 C 2.953125 -1.164062 2.9375 -0.800781 2.90625 -0.5625 C 3.082031 -0.539062 3.421875 -0.53125 3.921875 -0.53125 Z M 4.390625 -0.53125 "/></g></g></g><g fill="#6e493a" fill-opacity="1"><g transform="translate(9.925028, 14.374931)"><g><path d="M 2.578125 0.21875 C 1.890625 0.21875 1.363281 0.0664062 1 -0.234375 C 0.644531 -0.546875 0.46875 -0.945312 0.46875 -1.4375 C 0.46875 -1.976562 0.6875 -2.4375 1.125 -2.8125 C 1.5625 -3.1875 2.109375 -3.460938 2.765625 -3.640625 C 3.421875 -3.828125 4.082031 -3.914062 4.75 -3.90625 L 4.75 -4.78125 C 4.75 -5.382812 4.660156 -5.851562 4.484375 -6.1875 C 4.304688 -6.53125 3.925781 -6.703125 3.34375 -6.703125 C 3.050781 -6.703125 2.773438 -6.640625 2.515625 -6.515625 C 2.253906 -6.398438 2.066406 -6.222656 1.953125 -5.984375 C 2.066406 -5.847656 2.125 -5.671875 2.125 -5.453125 C 2.125 -5.304688 2.070312 -5.171875 1.96875 -5.046875 C 1.863281 -4.921875 1.71875 -4.859375 1.53125 -4.859375 C 1.332031 -4.859375 1.175781 -4.921875 1.0625 -5.046875 C 0.945312 -5.171875 0.890625 -5.335938 0.890625 -5.546875 C 0.890625 -5.847656 1.007812 -6.128906 1.25 -6.390625 C 1.488281 -6.648438 1.820312 -6.851562 2.25 -7 C 2.675781 -7.144531 3.148438 -7.21875 3.671875 -7.21875 C 4.453125 -7.21875 5.03125 -7.007812 5.40625 -6.59375 C 5.78125 -6.1875 5.960938 -5.535156 5.953125 -4.640625 L 5.9375 -1.484375 C 5.9375 -1.179688 5.914062 -0.863281 5.875 -0.53125 L 6.875 -0.59375 L 6.875 0 L 4.875 0 C 4.84375 -0.132812 4.8125 -0.398438 4.78125 -0.796875 C 4.09375 -0.117188 3.359375 0.21875 2.578125 0.21875 Z M 2.890625 -0.578125 C 3.253906 -0.578125 3.578125 -0.644531 3.859375 -0.78125 C 4.148438 -0.914062 4.445312 -1.125 4.75 -1.40625 C 4.738281 -1.539062 4.734375 -1.773438 4.734375 -2.109375 L 4.75 -3.4375 C 3.976562 -3.40625 3.296875 -3.242188 2.703125 -2.953125 C 2.109375 -2.671875 1.8125 -2.238281 1.8125 -1.65625 C 1.8125 -1.3125 1.910156 -1.046875 2.109375 -0.859375 C 2.316406 -0.671875 2.578125 -0.578125 2.890625 -0.578125 Z M 2.890625 -0.578125 "/></g></g></g><g fill="#6e493a" fill-opacity="1"><g transform="translate(17.145002, 14.374931)"><g><path d="M 0.484375 -0.421875 C 0.753906 -0.421875 0.945312 -0.488281 1.0625 -0.625 C 1.1875 -0.757812 1.253906 -0.925781 1.265625 -1.125 C 1.285156 -1.332031 1.296875 -1.664062 1.296875 -2.125 C 1.296875 -2.21875 1.296875 -2.726562 1.296875 -3.65625 C 1.304688 -4.582031 1.3125 -6.28125 1.3125 -8.75 C 1.3125 -9.101562 1.328125 -9.40625 1.359375 -9.65625 L 0.359375 -9.609375 L 0.359375 -10.1875 C 0.910156 -10.1875 1.304688 -10.21875 1.546875 -10.28125 C 1.785156 -10.351562 1.96875 -10.445312 2.09375 -10.5625 L 2.5 -10.5625 L 2.5 -3.953125 L 3.0625 -3.953125 L 4.78125 -5.734375 C 5.132812 -6.109375 5.40625 -6.359375 5.59375 -6.484375 L 4.640625 -6.4375 L 4.640625 -7 L 7.203125 -7 L 7.203125 -6.578125 C 6.785156 -6.535156 6.410156 -6.382812 6.078125 -6.125 C 5.742188 -5.875 5.367188 -5.535156 4.953125 -5.109375 L 3.859375 -3.96875 C 4.023438 -3.882812 4.171875 -3.785156 4.296875 -3.671875 C 4.429688 -3.554688 4.578125 -3.398438 4.734375 -3.203125 L 5.71875 -1.9375 C 5.738281 -1.914062 5.84375 -1.769531 6.03125 -1.5 C 6.226562 -1.238281 6.457031 -0.992188 6.71875 -0.765625 C 6.988281 -0.535156 7.222656 -0.421875 7.421875 -0.421875 L 7.421875 0 L 6.140625 0 C 5.921875 0 5.710938 -0.0976562 5.515625 -0.296875 C 5.316406 -0.492188 5.03125 -0.832031 4.65625 -1.3125 L 4.109375 -2.09375 C 3.910156 -2.375 3.71875 -2.640625 3.53125 -2.890625 C 3.351562 -3.140625 3.203125 -3.320312 3.078125 -3.4375 L 2.5 -3.40625 L 2.5 -1.484375 C 2.5 -1.066406 2.484375 -0.75 2.453125 -0.53125 L 3.34375 -0.578125 L 3.34375 0 L 0.484375 0 Z M 0.484375 -0.421875 "/></g></g></g><g fill="#6e493a" fill-opacity="1"><g transform="translate(24.658803, 14.374931)"><g><path d="M 4 0.21875 C 3.351562 0.21875 2.769531 0.0664062 2.25 -0.234375 C 1.738281 -0.535156 1.332031 -0.96875 1.03125 -1.53125 C 0.738281 -2.09375 0.59375 -2.742188 0.59375 -3.484375 C 0.59375 -4.140625 0.738281 -4.753906 1.03125 -5.328125 C 1.332031 -5.898438 1.75 -6.359375 2.28125 -6.703125 C 2.820312 -7.046875 3.429688 -7.21875 4.109375 -7.21875 C 4.640625 -7.21875 5.117188 -7.101562 5.546875 -6.875 C 5.984375 -6.644531 6.328125 -6.296875 6.578125 -5.828125 C 6.828125 -5.367188 6.953125 -4.800781 6.953125 -4.125 L 2.03125 -4.046875 C 2.019531 -2.921875 2.203125 -2.046875 2.578125 -1.421875 C 2.960938 -0.796875 3.550781 -0.484375 4.34375 -0.484375 C 4.769531 -0.484375 5.207031 -0.59375 5.65625 -0.8125 C 6.113281 -1.039062 6.460938 -1.320312 6.703125 -1.65625 L 7.046875 -1.375 C 6.691406 -0.832031 6.226562 -0.429688 5.65625 -0.171875 C 5.09375 0.0859375 4.539062 0.21875 4 0.21875 Z M 5.640625 -4.640625 C 5.640625 -5.191406 5.515625 -5.664062 5.265625 -6.0625 C 5.015625 -6.46875 4.632812 -6.671875 4.125 -6.671875 C 2.96875 -6.671875 2.285156 -5.992188 2.078125 -4.640625 Z M 5.640625 -4.640625 "/></g></g></g><g fill="#6e493a" fill-opacity="1"><g transform="translate(32.242573, 14.374931)"><g><path d="M 0.609375 -0.421875 C 0.878906 -0.421875 1.070312 -0.488281 1.1875 -0.625 C 1.3125 -0.757812 1.382812 -0.929688 1.40625 -1.140625 C 1.425781 -1.347656 1.4375 -1.675781 1.4375 -2.125 L 1.4375 -5.3125 C 1.4375 -5.707031 1.457031 -6.015625 1.5 -6.234375 L 0.5 -6.1875 L 0.5 -6.765625 L 0.9375 -6.765625 C 1.289062 -6.765625 1.546875 -6.789062 1.703125 -6.84375 C 1.867188 -6.90625 2.019531 -7.003906 2.15625 -7.140625 L 2.5625 -7.140625 C 2.601562 -6.773438 2.625 -6.3125 2.625 -5.75 C 2.863281 -6.132812 3.195312 -6.472656 3.625 -6.765625 C 4.0625 -7.066406 4.515625 -7.21875 4.984375 -7.21875 C 5.265625 -7.21875 5.5 -7.144531 5.6875 -7 C 5.875 -6.851562 5.96875 -6.632812 5.96875 -6.34375 C 5.96875 -6.195312 5.90625 -6.046875 5.78125 -5.890625 C 5.664062 -5.742188 5.503906 -5.671875 5.296875 -5.671875 C 5.085938 -5.671875 4.914062 -5.742188 4.78125 -5.890625 C 4.65625 -6.046875 4.609375 -6.234375 4.640625 -6.453125 C 4.285156 -6.460938 3.925781 -6.328125 3.5625 -6.046875 C 3.207031 -5.765625 2.898438 -5.390625 2.640625 -4.921875 L 2.65625 -1.484375 C 2.65625 -1.066406 2.640625 -0.75 2.609375 -0.53125 L 3.484375 -0.578125 L 3.484375 0 L 0.609375 0 Z M 0.609375 -0.421875 "/></g></g></g><g fill="#6e493a" fill-opacity="1"><g transform="translate(38.301189, 14.374931)"><g><path d="M 1.6875 3.796875 C 1.382812 3.796875 1.132812 3.71875 0.9375 3.5625 C 0.738281 3.414062 0.640625 3.207031 0.640625 2.9375 C 0.640625 2.757812 0.695312 2.601562 0.8125 2.46875 C 0.9375 2.332031 1.09375 2.265625 1.28125 2.265625 C 1.457031 2.265625 1.585938 2.328125 1.671875 2.453125 C 1.765625 2.585938 1.8125 2.726562 1.8125 2.875 C 1.8125 2.957031 1.8125 3.019531 1.8125 3.0625 C 1.832031 3.082031 1.878906 3.09375 1.953125 3.09375 C 2.078125 3.09375 2.203125 3.046875 2.328125 2.953125 C 2.453125 2.859375 2.566406 2.722656 2.671875 2.546875 C 2.890625 2.191406 3.21875 1.394531 3.65625 0.15625 L 1.46875 -4.515625 C 1.070312 -5.359375 0.828125 -6.003906 0.734375 -6.453125 L 0.0625 -6.421875 L 0.0625 -7 L 2.953125 -7 L 2.953125 -6.578125 L 2.890625 -6.578125 C 2.453125 -6.546875 2.234375 -6.359375 2.234375 -6.015625 C 2.234375 -5.785156 2.347656 -5.421875 2.578125 -4.921875 L 4.21875 -1.40625 C 4.5 -2.207031 4.898438 -3.378906 5.421875 -4.921875 C 5.734375 -5.847656 5.960938 -6.367188 6.109375 -6.484375 L 5.140625 -6.421875 L 5.140625 -7 L 7.34375 -7 L 7.34375 -6.578125 C 7.019531 -6.453125 6.769531 -6.253906 6.59375 -5.984375 C 6.425781 -5.722656 6.238281 -5.316406 6.03125 -4.765625 L 4.28125 0.125 C 3.945312 1.070312 3.671875 1.785156 3.453125 2.265625 C 3.234375 2.742188 2.984375 3.117188 2.703125 3.390625 C 2.429688 3.660156 2.09375 3.796875 1.6875 3.796875 Z M 1.6875 3.796875 "/></g></g></g></g></g></g></svg>